<mxfile host="app.diagrams.net" modified="2024-07-11T15:23:14.596Z" agent="Mozilla/5.0 (Windows NT 10.0; Win64; x64) AppleWebKit/537.36 (KHTML, like Gecko) Chrome/126.0.0.0 Safari/537.36" etag="3SsK0IQduptN1x1O1w5G" version="24.6.4" type="device" pages="4">
  <diagram id="hlLgfh4nLH_682fkfoaE" name="inicio">
    <mxGraphModel dx="1420" dy="732" grid="1" gridSize="10" guides="1" tooltips="1" connect="1" arrows="1" fold="1" page="1" pageScale="1" pageWidth="1169" pageHeight="827" math="0" shadow="0">
      <root>
        <mxCell id="0" />
        <mxCell id="1" parent="0" />
        <mxCell id="cqLgn3re8wXLNYI2SR35-1" value="" style="verticalLabelPosition=bottom;shadow=0;dashed=0;align=center;html=1;verticalAlign=top;strokeWidth=1;shape=mxgraph.mockup.graphics.simpleIcon;strokeColor=#999999;rounded=0;labelBackgroundColor=none;fontFamily=Calibri;fontSize=14;fontColor=#000000;comic=1;sketch=1;curveFitting=1;jiggle=2;fillColor=default;gradientColor=none;textShadow=0;" parent="1" vertex="1">
          <mxGeometry x="3" y="2" width="1160" height="820" as="geometry" />
        </mxCell>
        <mxCell id="Akcovbp8DD4UbDTnjuof-1" value="Servicios" style="text;html=1;points=[];align=center;verticalAlign=middle;spacingTop=-4;fontSize=14;fontFamily=Calibri;fillColor=#dae8fc;strokeColor=#6c8ebf;sketch=1;curveFitting=1;jiggle=2;" parent="1" vertex="1">
          <mxGeometry x="480" y="780" width="100" height="20" as="geometry" />
        </mxCell>
        <mxCell id="Akcovbp8DD4UbDTnjuof-2" value="Productos" style="text;html=1;points=[];align=center;verticalAlign=middle;spacingTop=-4;fontSize=14;fontFamily=Calibri;fillColor=#dae8fc;strokeColor=#6c8ebf;sketch=1;curveFitting=1;jiggle=2;" parent="1" vertex="1">
          <mxGeometry x="590" y="780" width="100" height="20" as="geometry" />
        </mxCell>
        <mxCell id="Akcovbp8DD4UbDTnjuof-3" value="Contacto" style="text;html=1;points=[];align=center;verticalAlign=middle;spacingTop=-4;fontSize=14;fontFamily=Calibri;fillColor=#dae8fc;strokeColor=#6c8ebf;sketch=1;curveFitting=1;jiggle=2;" parent="1" vertex="1">
          <mxGeometry x="700" y="780" width="100" height="20" as="geometry" />
        </mxCell>
        <mxCell id="Akcovbp8DD4UbDTnjuof-4" value="Nosotros" style="text;html=1;points=[];align=center;verticalAlign=middle;spacingTop=-4;fontSize=14;fontFamily=Calibri;fillColor=#dae8fc;strokeColor=#6c8ebf;sketch=1;curveFitting=1;jiggle=2;" parent="1" vertex="1">
          <mxGeometry x="370" y="780" width="100" height="20" as="geometry" />
        </mxCell>
        <mxCell id="8vKRGJdccHmtEp37PVVO-1" value="LOGO" style="whiteSpace=wrap;html=1;rounded=0;shadow=0;labelBackgroundColor=none;strokeWidth=1;fontFamily=Calibri;fontSize=64;align=center;comic=1;sketch=1;curveFitting=1;jiggle=2;" parent="1" vertex="1">
          <mxGeometry x="390" y="294" width="390" height="240" as="geometry" />
        </mxCell>
        <mxCell id="aJ_Z3wk1sFAUPf6N0qNv-1" value="" style="verticalLabelPosition=bottom;verticalAlign=top;html=1;shadow=0;dashed=0;strokeWidth=1;shape=mxgraph.android.phone2;strokeColor=#c0c0c0;fontFamily=Calibri;fontSize=14;" parent="1" vertex="1">
          <mxGeometry x="400" y="880" width="350" height="700" as="geometry" />
        </mxCell>
        <mxCell id="aJ_Z3wk1sFAUPf6N0qNv-2" value="" style="verticalLabelPosition=bottom;shadow=0;dashed=0;align=center;html=1;verticalAlign=top;strokeWidth=1;shape=mxgraph.mockup.graphics.simpleIcon;strokeColor=#999999;rounded=0;labelBackgroundColor=none;fontFamily=Calibri;fontSize=14;fontColor=#000000;comic=1;sketch=1;curveFitting=1;jiggle=2;fillColor=default;gradientColor=none;textShadow=0;" parent="1" vertex="1">
          <mxGeometry x="417" y="944" width="313" height="576" as="geometry" />
        </mxCell>
        <mxCell id="aJ_Z3wk1sFAUPf6N0qNv-3" value="LOGO" style="whiteSpace=wrap;html=1;rounded=0;shadow=0;labelBackgroundColor=none;strokeWidth=1;fontFamily=Calibri;fontSize=34;align=center;comic=1;sketch=1;curveFitting=1;jiggle=2;" parent="1" vertex="1">
          <mxGeometry x="430" y="1090" width="280" height="200" as="geometry" />
        </mxCell>
        <mxCell id="aJ_Z3wk1sFAUPf6N0qNv-4" value="Servicios" style="text;html=1;points=[];align=center;verticalAlign=middle;spacingTop=-4;fontSize=14;fontFamily=Calibri;fillColor=#dae8fc;strokeColor=#6c8ebf;sketch=1;curveFitting=1;jiggle=2;" parent="1" vertex="1">
          <mxGeometry x="523.5" y="1420" width="100" height="20" as="geometry" />
        </mxCell>
        <mxCell id="aJ_Z3wk1sFAUPf6N0qNv-5" value="Productos" style="text;html=1;points=[];align=center;verticalAlign=middle;spacingTop=-4;fontSize=14;fontFamily=Calibri;fillColor=#dae8fc;strokeColor=#6c8ebf;sketch=1;curveFitting=1;jiggle=2;" parent="1" vertex="1">
          <mxGeometry x="523.5" y="1450" width="100" height="20" as="geometry" />
        </mxCell>
        <mxCell id="aJ_Z3wk1sFAUPf6N0qNv-6" value="Contacto" style="text;html=1;points=[];align=center;verticalAlign=middle;spacingTop=-4;fontSize=14;fontFamily=Calibri;fillColor=#dae8fc;strokeColor=#6c8ebf;sketch=1;curveFitting=1;jiggle=2;" parent="1" vertex="1">
          <mxGeometry x="523.5" y="1480" width="100" height="20" as="geometry" />
        </mxCell>
        <mxCell id="aJ_Z3wk1sFAUPf6N0qNv-7" value="Nosotros" style="text;html=1;points=[];align=center;verticalAlign=middle;spacingTop=-4;fontSize=14;fontFamily=Calibri;fillColor=#dae8fc;strokeColor=#6c8ebf;sketch=1;curveFitting=1;jiggle=2;" parent="1" vertex="1">
          <mxGeometry x="523.5" y="1390" width="100" height="20" as="geometry" />
        </mxCell>
      </root>
    </mxGraphModel>
  </diagram>
  <diagram name="nosotros" id="A0qK_mLbLeIoV3MG-qxZ">
    <mxGraphModel dx="1420" dy="732" grid="1" gridSize="10" guides="1" tooltips="1" connect="1" arrows="1" fold="1" page="1" pageScale="1" pageWidth="1169" pageHeight="827" background="#ffffff" math="0" shadow="0">
      <root>
        <mxCell id="Wqhx6GSPGnmZZ6M0NCw3-0" />
        <mxCell id="Wqhx6GSPGnmZZ6M0NCw3-1" parent="Wqhx6GSPGnmZZ6M0NCw3-0" />
        <mxCell id="YKKYjPonRGyeT_aJlQpG-7" value="" style="verticalLabelPosition=bottom;verticalAlign=top;html=1;shadow=0;dashed=0;strokeWidth=3;shape=mxgraph.android.phone2;strokeColor=default;fontFamily=Calibri;" vertex="1" parent="Wqhx6GSPGnmZZ6M0NCw3-1">
          <mxGeometry x="340.68000000000006" y="930" width="359.32" height="650" as="geometry" />
        </mxCell>
        <mxCell id="1qSWzE1mVja2B58dd2cl-0" value="" style="rounded=0;whiteSpace=wrap;html=1;fillColor=default;strokeColor=default;fontFamily=Calibri;" vertex="1" parent="Wqhx6GSPGnmZZ6M0NCw3-1">
          <mxGeometry x="350" y="988" width="340" height="1232" as="geometry" />
        </mxCell>
        <mxCell id="Wqhx6GSPGnmZZ6M0NCw3-2" value="" style="whiteSpace=wrap;html=1;rounded=0;shadow=0;labelBackgroundColor=none;strokeColor=#000000;strokeWidth=1;fillColor=none;fontFamily=Calibri;fontSize=12;fontColor=#000000;align=center;comic=1;" parent="Wqhx6GSPGnmZZ6M0NCw3-1" vertex="1">
          <mxGeometry x="20" y="20" width="1130" height="790" as="geometry" />
        </mxCell>
        <mxCell id="Wqhx6GSPGnmZZ6M0NCw3-3" value="LOGO" style="whiteSpace=wrap;html=1;rounded=0;shadow=0;labelBackgroundColor=none;strokeWidth=1;fontFamily=Calibri;fontSize=28;align=center;comic=1;" parent="Wqhx6GSPGnmZZ6M0NCw3-1" vertex="1">
          <mxGeometry x="40" y="40" width="190" height="50" as="geometry" />
        </mxCell>
        <mxCell id="Wqhx6GSPGnmZZ6M0NCw3-4" value="Inicio" style="text;html=1;points=[];align=center;verticalAlign=middle;spacingTop=0;fontSize=14;fontFamily=Calibri;fillColor=#dae8fc;strokeColor=#6c8ebf;sketch=1;curveFitting=1;jiggle=2;" parent="Wqhx6GSPGnmZZ6M0NCw3-1" vertex="1">
          <mxGeometry x="530" y="51" width="100" height="30" as="geometry" />
        </mxCell>
        <mxCell id="Wqhx6GSPGnmZZ6M0NCw3-5" value="Servicios" style="text;html=1;points=[];align=center;verticalAlign=middle;spacingTop=0;fontSize=14;fontFamily=Calibri;fillColor=#dae8fc;strokeColor=#6c8ebf;sketch=1;curveFitting=1;jiggle=2;" parent="Wqhx6GSPGnmZZ6M0NCw3-1" vertex="1">
          <mxGeometry x="750" y="51" width="100" height="30" as="geometry" />
        </mxCell>
        <mxCell id="Wqhx6GSPGnmZZ6M0NCw3-6" value="Productos" style="text;html=1;points=[];align=center;verticalAlign=middle;spacingTop=0;fontSize=14;fontFamily=Calibri;fillColor=#dae8fc;strokeColor=#6c8ebf;sketch=1;curveFitting=1;jiggle=2;" parent="Wqhx6GSPGnmZZ6M0NCw3-1" vertex="1">
          <mxGeometry x="860" y="51" width="100" height="30" as="geometry" />
        </mxCell>
        <mxCell id="Wqhx6GSPGnmZZ6M0NCw3-7" value="Contacto" style="text;html=1;points=[];align=center;verticalAlign=middle;spacingTop=0;fontSize=14;fontFamily=Calibri;fillColor=#dae8fc;strokeColor=#6c8ebf;sketch=1;curveFitting=1;jiggle=2;" parent="Wqhx6GSPGnmZZ6M0NCw3-1" vertex="1">
          <mxGeometry x="970" y="51" width="100" height="30" as="geometry" />
        </mxCell>
        <mxCell id="Wqhx6GSPGnmZZ6M0NCw3-8" value="" style="line;strokeWidth=1;html=1;rounded=0;shadow=0;labelBackgroundColor=none;fillColor=none;fontFamily=Calibri;fontSize=14;fontColor=#000000;align=center;comic=1;" parent="Wqhx6GSPGnmZZ6M0NCw3-1" vertex="1">
          <mxGeometry x="20" y="110" width="1060" height="10" as="geometry" />
        </mxCell>
        <mxCell id="Wqhx6GSPGnmZZ6M0NCw3-10" value="" style="verticalLabelPosition=bottom;shadow=0;dashed=0;align=center;html=1;verticalAlign=top;strokeWidth=1;shape=mxgraph.mockup.graphics.simpleIcon;strokeColor=#999999;rounded=0;labelBackgroundColor=none;fontFamily=Calibri;fontSize=14;fontColor=#000000;comic=1;sketch=1;curveFitting=1;jiggle=2;fillColor=default;" parent="Wqhx6GSPGnmZZ6M0NCw3-1" vertex="1">
          <mxGeometry x="40" y="228" width="330" height="170" as="geometry" />
        </mxCell>
        <mxCell id="Wqhx6GSPGnmZZ6M0NCw3-15" value="Nosotros" style="text;html=1;points=[];align=center;verticalAlign=middle;spacingTop=0;fontSize=14;fontFamily=Calibri;fillColor=#dae8fc;strokeColor=#6c8ebf;sketch=1;curveFitting=1;jiggle=2;" parent="Wqhx6GSPGnmZZ6M0NCw3-1" vertex="1">
          <mxGeometry x="640" y="51" width="100" height="30" as="geometry" />
        </mxCell>
        <mxCell id="Wqhx6GSPGnmZZ6M0NCw3-17" value="" style="verticalLabelPosition=bottom;shadow=0;dashed=0;align=center;html=1;verticalAlign=top;strokeWidth=1;shape=mxgraph.mockup.graphics.simpleIcon;strokeColor=#999999;rounded=0;labelBackgroundColor=none;fontFamily=Calibri;fontSize=14;fontColor=#000000;comic=1;sketch=1;curveFitting=1;jiggle=2;fillColor=default;" parent="Wqhx6GSPGnmZZ6M0NCw3-1" vertex="1">
          <mxGeometry x="380" y="228" width="330" height="170" as="geometry" />
        </mxCell>
        <mxCell id="Wqhx6GSPGnmZZ6M0NCw3-19" value="" style="verticalLabelPosition=bottom;shadow=0;dashed=0;align=center;html=1;verticalAlign=top;strokeWidth=1;shape=mxgraph.mockup.graphics.simpleIcon;strokeColor=#999999;rounded=0;labelBackgroundColor=none;fontFamily=Calibri;fontSize=14;fontColor=#000000;comic=1;" parent="Wqhx6GSPGnmZZ6M0NCw3-1" vertex="1">
          <mxGeometry x="380" y="1636" width="293" height="170" as="geometry" />
        </mxCell>
        <mxCell id="Wqhx6GSPGnmZZ6M0NCw3-20" value="Nosotros" style="whiteSpace=wrap;html=1;rounded=0;shadow=0;labelBackgroundColor=none;strokeWidth=1;fillColor=none;fontFamily=Calibri;fontSize=48;align=center;verticalAlign=middle;spacing=10;comic=1;fontStyle=1;strokeColor=none;" parent="Wqhx6GSPGnmZZ6M0NCw3-1" vertex="1">
          <mxGeometry x="40" y="127" width="1020" height="80" as="geometry" />
        </mxCell>
        <mxCell id="Ijptszt-rBALLE_K64sf-0" value="&lt;div style=&quot;text-align: justify&quot;&gt;&lt;br&gt;&lt;/div&gt;" style="whiteSpace=wrap;html=1;rounded=0;shadow=0;labelBackgroundColor=none;strokeWidth=1;fillColor=none;fontFamily=Calibri;fontSize=12;align=center;verticalAlign=top;spacing=10;comic=1;strokeColor=none;" vertex="1" parent="Wqhx6GSPGnmZZ6M0NCw3-1">
          <mxGeometry x="37" y="418" width="323" height="72" as="geometry" />
        </mxCell>
        <mxCell id="Ijptszt-rBALLE_K64sf-1" value="FULANITO FULAN" style="text;html=1;align=center;verticalAlign=middle;whiteSpace=wrap;rounded=0;fontStyle=1;fontSize=16;fontFamily=Calibri;" vertex="1" parent="Wqhx6GSPGnmZZ6M0NCw3-1">
          <mxGeometry x="117" y="422" width="160" height="30" as="geometry" />
        </mxCell>
        <mxCell id="Ijptszt-rBALLE_K64sf-2" value="ANALISTA EN SISTEMAS" style="text;html=1;align=center;verticalAlign=top;whiteSpace=wrap;rounded=0;fontFamily=Calibri;" vertex="1" parent="Wqhx6GSPGnmZZ6M0NCw3-1">
          <mxGeometry x="50" y="452" width="310" height="28" as="geometry" />
        </mxCell>
        <mxCell id="Ijptszt-rBALLE_K64sf-3" value="&lt;div style=&quot;text-align: justify&quot;&gt;&lt;br&gt;&lt;/div&gt;" style="whiteSpace=wrap;html=1;rounded=0;shadow=0;labelBackgroundColor=none;strokeWidth=1;fillColor=none;fontFamily=Calibri;fontSize=12;align=center;verticalAlign=top;spacing=10;comic=1;strokeColor=none;" vertex="1" parent="Wqhx6GSPGnmZZ6M0NCw3-1">
          <mxGeometry x="384" y="422" width="316" height="68" as="geometry" />
        </mxCell>
        <mxCell id="Ijptszt-rBALLE_K64sf-4" value="SULTANITO SULTAN" style="text;html=1;align=center;verticalAlign=middle;whiteSpace=wrap;rounded=0;fontStyle=1;fontSize=16;fontFamily=Calibri;" vertex="1" parent="Wqhx6GSPGnmZZ6M0NCw3-1">
          <mxGeometry x="464" y="426" width="160" height="30" as="geometry" />
        </mxCell>
        <mxCell id="Ijptszt-rBALLE_K64sf-5" value="ANALISTA EN SISTEMAS" style="text;html=1;align=center;verticalAlign=top;whiteSpace=wrap;rounded=0;fontFamily=Calibri;" vertex="1" parent="Wqhx6GSPGnmZZ6M0NCw3-1">
          <mxGeometry x="397" y="456" width="293" height="24" as="geometry" />
        </mxCell>
        <mxCell id="Ijptszt-rBALLE_K64sf-6" value="&lt;div style=&quot;text-align: justify&quot;&gt;&lt;br&gt;&lt;/div&gt;" style="whiteSpace=wrap;html=1;rounded=0;shadow=0;labelBackgroundColor=none;strokeWidth=1;fillColor=none;fontFamily=Calibri;fontSize=12;align=center;verticalAlign=top;spacing=10;comic=1;strokeColor=none;" vertex="1" parent="Wqhx6GSPGnmZZ6M0NCw3-1">
          <mxGeometry x="723.5" y="422" width="346.5" height="68" as="geometry" />
        </mxCell>
        <mxCell id="Ijptszt-rBALLE_K64sf-7" value="ARMANDO ESTEBAN QUITO" style="text;html=1;align=center;verticalAlign=middle;whiteSpace=wrap;rounded=0;fontStyle=1;fontSize=16;fontFamily=Calibri;" vertex="1" parent="Wqhx6GSPGnmZZ6M0NCw3-1">
          <mxGeometry x="380" y="1820" width="293" height="30" as="geometry" />
        </mxCell>
        <mxCell id="Ijptszt-rBALLE_K64sf-8" value="LIC. ADMINISTRACIÖN EMPRESAS" style="text;html=1;align=center;verticalAlign=top;whiteSpace=wrap;rounded=0;fontFamily=Calibri;" vertex="1" parent="Wqhx6GSPGnmZZ6M0NCw3-1">
          <mxGeometry x="395" y="1850" width="268" height="24" as="geometry" />
        </mxCell>
        <mxCell id="tzbvYdyZFdVVQaU75aiG-1" value="" style="verticalLabelPosition=bottom;shadow=0;dashed=0;align=center;html=1;verticalAlign=top;strokeWidth=1;shape=mxgraph.mockup.graphics.simpleIcon;strokeColor=#999999;rounded=0;labelBackgroundColor=none;fontFamily=Calibri;fontSize=14;fontColor=#000000;comic=1;sketch=1;curveFitting=1;jiggle=2;fillColor=default;gradientColor=none;textShadow=0;" vertex="1" parent="Wqhx6GSPGnmZZ6M0NCw3-1">
          <mxGeometry x="370" y="1010" width="313" height="66" as="geometry" />
        </mxCell>
        <mxCell id="tzbvYdyZFdVVQaU75aiG-2" value="LOGO" style="whiteSpace=wrap;html=1;rounded=0;shadow=0;labelBackgroundColor=none;strokeWidth=1;fontFamily=Calibri;fontSize=20;align=center;comic=1;sketch=1;curveFitting=1;jiggle=2;" vertex="1" parent="Wqhx6GSPGnmZZ6M0NCw3-1">
          <mxGeometry x="463" y="1018" width="115" height="50" as="geometry" />
        </mxCell>
        <mxCell id="tzbvYdyZFdVVQaU75aiG-7" value="" style="verticalLabelPosition=bottom;shadow=0;dashed=0;align=center;html=1;verticalAlign=top;strokeWidth=1;shape=mxgraph.mockup.graphics.simpleIcon;strokeColor=#999999;rounded=0;labelBackgroundColor=none;fontFamily=Calibri;fontSize=14;fontColor=#000000;comic=1;" vertex="1" parent="Wqhx6GSPGnmZZ6M0NCw3-1">
          <mxGeometry x="380" y="1146" width="293" height="170" as="geometry" />
        </mxCell>
        <mxCell id="tzbvYdyZFdVVQaU75aiG-8" value="Nosotros" style="whiteSpace=wrap;html=1;rounded=0;shadow=0;labelBackgroundColor=none;strokeWidth=1;fillColor=none;fontFamily=Calibri;fontSize=25;align=center;verticalAlign=middle;spacing=10;comic=1;fontStyle=1;strokeColor=none;" vertex="1" parent="Wqhx6GSPGnmZZ6M0NCw3-1">
          <mxGeometry x="370" y="1086" width="323" height="50" as="geometry" />
        </mxCell>
        <mxCell id="tzbvYdyZFdVVQaU75aiG-9" value="&lt;div style=&quot;text-align: justify&quot;&gt;&lt;br&gt;&lt;/div&gt;" style="whiteSpace=wrap;html=1;rounded=0;shadow=0;labelBackgroundColor=none;strokeWidth=1;fillColor=none;fontFamily=Calibri;fontSize=12;align=center;verticalAlign=top;spacing=10;comic=1;strokeColor=none;" vertex="1" parent="Wqhx6GSPGnmZZ6M0NCw3-1">
          <mxGeometry x="380" y="1324" width="293" height="68" as="geometry" />
        </mxCell>
        <mxCell id="tzbvYdyZFdVVQaU75aiG-10" value="FULANITO FULAN" style="text;html=1;align=center;verticalAlign=middle;whiteSpace=wrap;rounded=0;fontStyle=1;fontSize=16;fontFamily=Calibri;" vertex="1" parent="Wqhx6GSPGnmZZ6M0NCw3-1">
          <mxGeometry x="448" y="1324" width="160" height="30" as="geometry" />
        </mxCell>
        <mxCell id="tzbvYdyZFdVVQaU75aiG-11" value="ANALISTA EN SISTEMAS" style="text;html=1;align=center;verticalAlign=top;whiteSpace=wrap;rounded=0;fontFamily=Calibri;" vertex="1" parent="Wqhx6GSPGnmZZ6M0NCw3-1">
          <mxGeometry x="391.5" y="1358" width="270" height="28" as="geometry" />
        </mxCell>
        <mxCell id="tzbvYdyZFdVVQaU75aiG-24" value="" style="verticalLabelPosition=bottom;shadow=0;dashed=0;align=center;html=1;verticalAlign=top;strokeWidth=1;shape=mxgraph.mockup.graphics.simpleIcon;strokeColor=#999999;rounded=0;labelBackgroundColor=none;fontFamily=Calibri;fontSize=14;fontColor=#000000;comic=1;" vertex="1" parent="Wqhx6GSPGnmZZ6M0NCw3-1">
          <mxGeometry x="380" y="1396" width="293" height="170" as="geometry" />
        </mxCell>
        <mxCell id="tzbvYdyZFdVVQaU75aiG-25" value="SULTANITO SULTAN" style="text;html=1;align=center;verticalAlign=middle;whiteSpace=wrap;rounded=0;fontStyle=1;fontSize=16;fontFamily=Calibri;" vertex="1" parent="Wqhx6GSPGnmZZ6M0NCw3-1">
          <mxGeometry x="440.5" y="1576" width="160" height="30" as="geometry" />
        </mxCell>
        <mxCell id="tzbvYdyZFdVVQaU75aiG-26" value="ANALISTA EN SISTEMAS" style="text;html=1;align=center;verticalAlign=top;whiteSpace=wrap;rounded=0;fontFamily=Calibri;" vertex="1" parent="Wqhx6GSPGnmZZ6M0NCw3-1">
          <mxGeometry x="391.5" y="1606" width="293" height="24" as="geometry" />
        </mxCell>
        <mxCell id="tzbvYdyZFdVVQaU75aiG-27" value="" style="group;fontFamily=Calibri;" vertex="1" connectable="0" parent="Wqhx6GSPGnmZZ6M0NCw3-1">
          <mxGeometry x="75" y="692" width="333" height="99" as="geometry" />
        </mxCell>
        <mxCell id="Wqhx6GSPGnmZZ6M0NCw3-13" value="" style="whiteSpace=wrap;html=1;rounded=0;shadow=0;labelBackgroundColor=none;strokeWidth=1;fillColor=none;fontFamily=Calibri;fontSize=12;align=center;comic=1;" parent="tzbvYdyZFdVVQaU75aiG-27" vertex="1">
          <mxGeometry width="333" height="99" as="geometry" />
        </mxCell>
        <mxCell id="Ijptszt-rBALLE_K64sf-10" value="&lt;b&gt;Yacaré Studio&lt;/b&gt;&lt;div&gt;Dirección&lt;/div&gt;&lt;div&gt;Teléfono&lt;/div&gt;&lt;div&gt;Correo Electrónico&lt;/div&gt;" style="text;html=1;align=left;verticalAlign=top;whiteSpace=wrap;rounded=0;fontFamily=Calibri;" vertex="1" parent="tzbvYdyZFdVVQaU75aiG-27">
          <mxGeometry x="113" y="14.5" width="120" height="70" as="geometry" />
        </mxCell>
        <mxCell id="Ijptszt-rBALLE_K64sf-11" value="ISOLOGO" style="whiteSpace=wrap;html=1;rounded=0;shadow=0;labelBackgroundColor=none;strokeWidth=1;fontFamily=Calibri;fontSize=13;align=center;comic=1;" vertex="1" parent="tzbvYdyZFdVVQaU75aiG-27">
          <mxGeometry x="13" y="14.5" width="90" height="75.5" as="geometry" />
        </mxCell>
        <mxCell id="tzbvYdyZFdVVQaU75aiG-28" value="" style="group;fontFamily=Calibri;" vertex="1" connectable="0" parent="Wqhx6GSPGnmZZ6M0NCw3-1">
          <mxGeometry x="383" y="1906" width="290" height="99" as="geometry" />
        </mxCell>
        <mxCell id="tzbvYdyZFdVVQaU75aiG-29" value="" style="whiteSpace=wrap;html=1;rounded=0;shadow=0;labelBackgroundColor=none;strokeWidth=1;fillColor=none;fontFamily=Calibri;fontSize=12;align=center;comic=1;" vertex="1" parent="tzbvYdyZFdVVQaU75aiG-28">
          <mxGeometry width="290" height="99" as="geometry" />
        </mxCell>
        <mxCell id="tzbvYdyZFdVVQaU75aiG-30" value="&lt;b&gt;Yacaré Studio&lt;/b&gt;&lt;div&gt;Dirección&lt;/div&gt;&lt;div&gt;Teléfono&lt;/div&gt;&lt;div&gt;Correo Electrónico&lt;/div&gt;" style="text;html=1;align=left;verticalAlign=top;whiteSpace=wrap;rounded=0;fontFamily=Calibri;" vertex="1" parent="tzbvYdyZFdVVQaU75aiG-28">
          <mxGeometry x="98.4084084084084" y="14.5" width="104.50450450450451" height="70" as="geometry" />
        </mxCell>
        <mxCell id="tzbvYdyZFdVVQaU75aiG-31" value="ISOLOGO" style="whiteSpace=wrap;html=1;rounded=0;shadow=0;labelBackgroundColor=none;strokeWidth=1;fontFamily=Calibri;fontSize=13;align=center;comic=1;" vertex="1" parent="tzbvYdyZFdVVQaU75aiG-28">
          <mxGeometry x="11.32132132132132" y="14.5" width="78.37837837837839" height="75.5" as="geometry" />
        </mxCell>
        <mxCell id="tzbvYdyZFdVVQaU75aiG-32" value="" style="group;fontFamily=Calibri;" vertex="1" connectable="0" parent="Wqhx6GSPGnmZZ6M0NCw3-1">
          <mxGeometry x="420" y="692" width="330" height="99" as="geometry" />
        </mxCell>
        <mxCell id="tzbvYdyZFdVVQaU75aiG-12" value="" style="whiteSpace=wrap;html=1;rounded=0;shadow=0;labelBackgroundColor=none;strokeWidth=1;fillColor=none;fontFamily=Calibri;fontSize=12;align=center;comic=1;" vertex="1" parent="tzbvYdyZFdVVQaU75aiG-32">
          <mxGeometry width="330" height="99" as="geometry" />
        </mxCell>
        <mxCell id="tzbvYdyZFdVVQaU75aiG-13" value="Nosotros" style="text;html=1;points=[];align=left;verticalAlign=top;spacingTop=-4;fontSize=12;fontFamily=Calibri;" vertex="1" parent="tzbvYdyZFdVVQaU75aiG-32">
          <mxGeometry x="20" y="8" width="170" height="20" as="geometry" />
        </mxCell>
        <mxCell id="tzbvYdyZFdVVQaU75aiG-14" value="Productos" style="text;html=1;points=[];align=left;verticalAlign=top;spacingTop=-4;fontSize=12;fontFamily=Calibri;" vertex="1" parent="tzbvYdyZFdVVQaU75aiG-32">
          <mxGeometry x="20" y="28" width="170" height="20" as="geometry" />
        </mxCell>
        <mxCell id="tzbvYdyZFdVVQaU75aiG-15" value="Servicios" style="text;html=1;points=[];align=left;verticalAlign=top;spacingTop=-4;fontSize=12;fontFamily=Calibri;" vertex="1" parent="tzbvYdyZFdVVQaU75aiG-32">
          <mxGeometry x="20" y="48" width="170" height="20" as="geometry" />
        </mxCell>
        <mxCell id="tzbvYdyZFdVVQaU75aiG-16" value="Contacto" style="text;html=1;points=[];align=left;verticalAlign=top;spacingTop=-4;fontSize=12;fontFamily=Calibri;" vertex="1" parent="tzbvYdyZFdVVQaU75aiG-32">
          <mxGeometry x="20" y="68" width="170" height="20" as="geometry" />
        </mxCell>
        <mxCell id="tzbvYdyZFdVVQaU75aiG-33" value="" style="group;fontFamily=Calibri;" vertex="1" connectable="0" parent="Wqhx6GSPGnmZZ6M0NCw3-1">
          <mxGeometry x="383" y="2020" width="290" height="99" as="geometry" />
        </mxCell>
        <mxCell id="tzbvYdyZFdVVQaU75aiG-34" value="" style="whiteSpace=wrap;html=1;rounded=0;shadow=0;labelBackgroundColor=none;strokeWidth=1;fillColor=none;fontFamily=Calibri;fontSize=12;align=center;comic=1;" vertex="1" parent="tzbvYdyZFdVVQaU75aiG-33">
          <mxGeometry width="290" height="99" as="geometry" />
        </mxCell>
        <mxCell id="tzbvYdyZFdVVQaU75aiG-35" value="Nosotros" style="text;html=1;points=[];align=left;verticalAlign=top;spacingTop=-4;fontSize=12;fontFamily=Calibri;" vertex="1" parent="tzbvYdyZFdVVQaU75aiG-33">
          <mxGeometry x="17.575757575757574" y="8" width="149.3939393939394" height="20" as="geometry" />
        </mxCell>
        <mxCell id="tzbvYdyZFdVVQaU75aiG-36" value="Productos" style="text;html=1;points=[];align=left;verticalAlign=top;spacingTop=-4;fontSize=12;fontFamily=Calibri;" vertex="1" parent="tzbvYdyZFdVVQaU75aiG-33">
          <mxGeometry x="17.575757575757574" y="28" width="149.3939393939394" height="20" as="geometry" />
        </mxCell>
        <mxCell id="tzbvYdyZFdVVQaU75aiG-37" value="Servicios" style="text;html=1;points=[];align=left;verticalAlign=top;spacingTop=-4;fontSize=12;fontFamily=Calibri;" vertex="1" parent="tzbvYdyZFdVVQaU75aiG-33">
          <mxGeometry x="17.575757575757574" y="48" width="149.3939393939394" height="20" as="geometry" />
        </mxCell>
        <mxCell id="tzbvYdyZFdVVQaU75aiG-38" value="Contacto" style="text;html=1;points=[];align=left;verticalAlign=top;spacingTop=-4;fontSize=12;fontFamily=Calibri;" vertex="1" parent="tzbvYdyZFdVVQaU75aiG-33">
          <mxGeometry x="17.575757575757574" y="68" width="149.3939393939394" height="20" as="geometry" />
        </mxCell>
        <mxCell id="tzbvYdyZFdVVQaU75aiG-39" value="" style="group;fontFamily=Calibri;" vertex="1" connectable="0" parent="Wqhx6GSPGnmZZ6M0NCw3-1">
          <mxGeometry x="758" y="692" width="340" height="99" as="geometry" />
        </mxCell>
        <mxCell id="Wqhx6GSPGnmZZ6M0NCw3-11" value="" style="whiteSpace=wrap;html=1;rounded=0;shadow=0;labelBackgroundColor=none;strokeWidth=1;fillColor=none;fontFamily=Calibri;fontSize=12;align=center;comic=1;" parent="tzbvYdyZFdVVQaU75aiG-39" vertex="1">
          <mxGeometry width="340" height="99" as="geometry" />
        </mxCell>
        <mxCell id="Wqhx6GSPGnmZZ6M0NCw3-12" value="Privacidad" style="text;html=1;points=[];align=left;verticalAlign=top;spacingTop=-4;fontSize=12;fontFamily=Calibri;" parent="tzbvYdyZFdVVQaU75aiG-39" vertex="1">
          <mxGeometry x="20" y="10" width="170" height="20" as="geometry" />
        </mxCell>
        <mxCell id="Ijptszt-rBALLE_K64sf-9" value="Términos y condiciones" style="text;html=1;points=[];align=left;verticalAlign=top;spacingTop=-4;fontSize=12;fontFamily=Calibri;" vertex="1" parent="tzbvYdyZFdVVQaU75aiG-39">
          <mxGeometry x="20" y="30" width="170" height="20" as="geometry" />
        </mxCell>
        <mxCell id="tzbvYdyZFdVVQaU75aiG-40" value="" style="group;fontFamily=Calibri;" vertex="1" connectable="0" parent="Wqhx6GSPGnmZZ6M0NCw3-1">
          <mxGeometry x="383" y="2134" width="290" height="59" as="geometry" />
        </mxCell>
        <mxCell id="tzbvYdyZFdVVQaU75aiG-41" value="" style="whiteSpace=wrap;html=1;rounded=0;shadow=0;labelBackgroundColor=none;strokeWidth=1;fillColor=none;fontFamily=Calibri;fontSize=12;align=center;comic=1;" vertex="1" parent="tzbvYdyZFdVVQaU75aiG-40">
          <mxGeometry width="290" height="58.99999999999999" as="geometry" />
        </mxCell>
        <mxCell id="tzbvYdyZFdVVQaU75aiG-42" value="Privacidad" style="text;html=1;points=[];align=left;verticalAlign=top;spacingTop=-4;fontSize=12;fontFamily=Calibri;" vertex="1" parent="tzbvYdyZFdVVQaU75aiG-40">
          <mxGeometry x="17.058823529411764" y="5.959595959595959" width="145" height="11.919191919191919" as="geometry" />
        </mxCell>
        <mxCell id="tzbvYdyZFdVVQaU75aiG-43" value="Términos y condiciones" style="text;html=1;points=[];align=left;verticalAlign=top;spacingTop=-4;fontSize=12;fontFamily=Calibri;" vertex="1" parent="tzbvYdyZFdVVQaU75aiG-40">
          <mxGeometry x="17.058823529411764" y="23.53878787878788" width="145" height="11.919191919191919" as="geometry" />
        </mxCell>
        <mxCell id="YKKYjPonRGyeT_aJlQpG-0" value="" style="shape=actor;whiteSpace=wrap;html=1;fontFamily=Calibri;sketch=1;curveFitting=1;jiggle=2;shadow=0;" vertex="1" parent="Wqhx6GSPGnmZZ6M0NCw3-1">
          <mxGeometry x="177" y="270" width="40" height="50" as="geometry" />
        </mxCell>
        <mxCell id="YKKYjPonRGyeT_aJlQpG-1" value="" style="shape=actor;whiteSpace=wrap;html=1;fontFamily=Calibri;sketch=1;curveFitting=1;jiggle=2;shadow=0;" vertex="1" parent="Wqhx6GSPGnmZZ6M0NCw3-1">
          <mxGeometry x="523.5" y="270" width="40" height="50" as="geometry" />
        </mxCell>
        <mxCell id="YKKYjPonRGyeT_aJlQpG-2" value="" style="shape=actor;whiteSpace=wrap;html=1;fontFamily=Calibri;" vertex="1" parent="Wqhx6GSPGnmZZ6M0NCw3-1">
          <mxGeometry x="509" y="1206" width="40" height="50" as="geometry" />
        </mxCell>
        <mxCell id="YKKYjPonRGyeT_aJlQpG-3" value="" style="verticalLabelPosition=bottom;shadow=0;dashed=0;align=center;html=1;verticalAlign=top;strokeWidth=1;shape=mxgraph.mockup.graphics.simpleIcon;strokeColor=#999999;rounded=0;labelBackgroundColor=none;fontFamily=Calibri;fontSize=14;fontColor=#000000;comic=1;sketch=1;curveFitting=1;jiggle=2;fillColor=default;" vertex="1" parent="Wqhx6GSPGnmZZ6M0NCw3-1">
          <mxGeometry x="740" y="228" width="330" height="170" as="geometry" />
        </mxCell>
        <mxCell id="YKKYjPonRGyeT_aJlQpG-4" value="ARMANDO ESTEBAN QUITO" style="text;html=1;align=center;verticalAlign=middle;whiteSpace=wrap;rounded=0;fontStyle=1;fontSize=16;fontFamily=Calibri;" vertex="1" parent="Wqhx6GSPGnmZZ6M0NCw3-1">
          <mxGeometry x="750" y="426" width="310" height="30" as="geometry" />
        </mxCell>
        <mxCell id="YKKYjPonRGyeT_aJlQpG-5" value="LIC. ADMINISTRACION DE EMPRESAS" style="text;html=1;align=center;verticalAlign=top;whiteSpace=wrap;rounded=0;fontFamily=Calibri;" vertex="1" parent="Wqhx6GSPGnmZZ6M0NCw3-1">
          <mxGeometry x="757" y="456" width="293" height="24" as="geometry" />
        </mxCell>
        <mxCell id="YKKYjPonRGyeT_aJlQpG-6" value="" style="shape=actor;whiteSpace=wrap;html=1;fontFamily=Calibri;shadow=0;sketch=1;curveFitting=1;jiggle=2;" vertex="1" parent="Wqhx6GSPGnmZZ6M0NCw3-1">
          <mxGeometry x="883.5" y="270" width="40" height="50" as="geometry" />
        </mxCell>
      </root>
    </mxGraphModel>
  </diagram>
  <diagram name="servicios y productos" id="03018318-947c-dd8e-b7a3-06fadd420f32">
    <mxGraphModel dx="1420" dy="732" grid="1" gridSize="10" guides="1" tooltips="1" connect="1" arrows="1" fold="1" page="1" pageScale="1" pageWidth="1169" pageHeight="827" background="#ffffff" math="0" shadow="0">
      <root>
        <mxCell id="0" />
        <mxCell id="1" parent="0" />
        <mxCell id="677b7b8949515195-1" value="" style="whiteSpace=wrap;html=1;rounded=0;shadow=0;labelBackgroundColor=none;strokeColor=#000000;strokeWidth=1;fillColor=none;fontFamily=Calibri;fontSize=12;fontColor=#000000;align=center;comic=1;" parent="1" vertex="1">
          <mxGeometry x="20" y="20" width="1140" height="790" as="geometry" />
        </mxCell>
        <mxCell id="677b7b8949515195-2" value="LOGO" style="whiteSpace=wrap;html=1;rounded=0;shadow=0;labelBackgroundColor=none;strokeWidth=1;fontFamily=Calibri;fontSize=28;align=center;comic=1;" parent="1" vertex="1">
          <mxGeometry x="40" y="40" width="190" height="50" as="geometry" />
        </mxCell>
        <mxCell id="677b7b8949515195-9" value="" style="line;strokeWidth=1;html=1;rounded=0;shadow=0;labelBackgroundColor=none;fillColor=none;fontFamily=Calibri;fontSize=14;fontColor=#000000;align=center;comic=1;" parent="1" vertex="1">
          <mxGeometry x="20" y="110" width="1060" height="10" as="geometry" />
        </mxCell>
        <mxCell id="677b7b8949515195-16" value="" style="verticalLabelPosition=bottom;shadow=0;dashed=0;align=center;html=1;verticalAlign=top;strokeWidth=1;shape=mxgraph.mockup.graphics.simpleIcon;strokeColor=#999999;rounded=0;labelBackgroundColor=none;fontFamily=Calibri;fontSize=14;fontColor=#000000;comic=1;" parent="1" vertex="1">
          <mxGeometry x="73" y="216" width="323" height="170" as="geometry" />
        </mxCell>
        <mxCell id="iygrm5pXlnveiSX8eM97-1" value="&lt;div style=&quot;text-align: justify&quot;&gt;&lt;span&gt;Lorem ipsum dolor sit amet, consectetur adipisicing elit, sed do eiusmod tempor incididunt ut labore et dolore magna aliqua. Ut enim ad minim veniam, quis nostrud exercitation ullamco laboris nisi ut aliquip ex ea commodo consequat. Duis aute irure dolor in reprehenderit in voluptate velit esse cillum dolore eu fugiat nulla pariatur. Excepteur sint occaecat cupidatat non proident, sunt in culpa qui officia deserunt mollit anim id est laborum.&lt;/span&gt;&lt;/div&gt;" style="whiteSpace=wrap;html=1;rounded=0;shadow=0;labelBackgroundColor=none;strokeWidth=1;fillColor=none;fontFamily=Calibri;fontSize=12;align=center;verticalAlign=top;spacing=10;comic=1;strokeColor=none;" parent="1" vertex="1">
          <mxGeometry x="416" y="406" width="320" height="180" as="geometry" />
        </mxCell>
        <mxCell id="iygrm5pXlnveiSX8eM97-2" value="" style="verticalLabelPosition=bottom;shadow=0;dashed=0;align=center;html=1;verticalAlign=top;strokeWidth=1;shape=mxgraph.mockup.graphics.simpleIcon;strokeColor=#999999;rounded=0;labelBackgroundColor=none;fontFamily=Calibri;fontSize=14;fontColor=#000000;comic=1;" parent="1" vertex="1">
          <mxGeometry x="416" y="216" width="320" height="170" as="geometry" />
        </mxCell>
        <mxCell id="iygrm5pXlnveiSX8eM97-3" value="&lt;div style=&quot;text-align: justify&quot;&gt;&lt;span&gt;Lorem ipsum dolor sit amet, consectetur adipisicing elit, sed do eiusmod tempor incididunt ut labore et dolore magna aliqua. Ut enim ad minim veniam, quis nostrud exercitation ullamco laboris nisi ut aliquip ex ea commodo consequat. Duis aute irure dolor in reprehenderit in voluptate velit esse cillum dolore eu fugiat nulla pariatur. Excepteur sint occaecat cupidatat non proident, sunt in culpa qui officia deserunt mollit anim id est laborum.&lt;/span&gt;&lt;/div&gt;" style="whiteSpace=wrap;html=1;rounded=0;shadow=0;labelBackgroundColor=none;strokeWidth=1;fillColor=none;fontFamily=Calibri;fontSize=12;align=center;verticalAlign=top;spacing=10;comic=1;strokeColor=none;" parent="1" vertex="1">
          <mxGeometry x="760" y="406" width="350" height="180" as="geometry" />
        </mxCell>
        <mxCell id="iygrm5pXlnveiSX8eM97-4" value="" style="verticalLabelPosition=bottom;shadow=0;dashed=0;align=center;html=1;verticalAlign=top;strokeWidth=1;shape=mxgraph.mockup.graphics.simpleIcon;strokeColor=#999999;rounded=0;labelBackgroundColor=none;fontFamily=Calibri;fontSize=14;fontColor=#000000;comic=1;" parent="1" vertex="1">
          <mxGeometry x="760" y="216" width="350" height="170" as="geometry" />
        </mxCell>
        <mxCell id="iygrm5pXlnveiSX8eM97-5" value="Nuestros Productos / Servicios" style="whiteSpace=wrap;html=1;rounded=0;shadow=0;labelBackgroundColor=none;strokeWidth=1;fillColor=none;fontFamily=Calibri;fontSize=48;align=center;verticalAlign=top;spacing=10;comic=1;fontStyle=1;strokeColor=none;" parent="1" vertex="1">
          <mxGeometry x="40" y="120" width="1100" height="90" as="geometry" />
        </mxCell>
        <mxCell id="qBMLVj5xGVnhITaM47Ud-1" value="" style="group;fontFamily=Calibri;" vertex="1" connectable="0" parent="1">
          <mxGeometry x="73" y="690" width="333" height="99" as="geometry" />
        </mxCell>
        <mxCell id="qBMLVj5xGVnhITaM47Ud-2" value="" style="whiteSpace=wrap;html=1;rounded=0;shadow=0;labelBackgroundColor=none;strokeWidth=1;fillColor=none;fontFamily=Calibri;fontSize=12;align=center;comic=1;" vertex="1" parent="qBMLVj5xGVnhITaM47Ud-1">
          <mxGeometry width="333" height="99" as="geometry" />
        </mxCell>
        <mxCell id="qBMLVj5xGVnhITaM47Ud-3" value="&lt;b&gt;Yacaré Studio&lt;/b&gt;&lt;div&gt;Dirección&lt;/div&gt;&lt;div&gt;Teléfono&lt;/div&gt;&lt;div&gt;Correo Electrónico&lt;/div&gt;" style="text;html=1;align=left;verticalAlign=top;whiteSpace=wrap;rounded=0;fontFamily=Calibri;" vertex="1" parent="qBMLVj5xGVnhITaM47Ud-1">
          <mxGeometry x="113" y="14.5" width="120" height="70" as="geometry" />
        </mxCell>
        <mxCell id="qBMLVj5xGVnhITaM47Ud-4" value="ISOLOGO" style="whiteSpace=wrap;html=1;rounded=0;shadow=0;labelBackgroundColor=none;strokeWidth=1;fontFamily=Calibri;fontSize=13;align=center;comic=1;" vertex="1" parent="qBMLVj5xGVnhITaM47Ud-1">
          <mxGeometry x="13" y="14.5" width="90" height="75.5" as="geometry" />
        </mxCell>
        <mxCell id="qBMLVj5xGVnhITaM47Ud-5" value="" style="group;fontFamily=Calibri;" vertex="1" connectable="0" parent="1">
          <mxGeometry x="416" y="690" width="330" height="99" as="geometry" />
        </mxCell>
        <mxCell id="qBMLVj5xGVnhITaM47Ud-6" value="" style="whiteSpace=wrap;html=1;rounded=0;shadow=0;labelBackgroundColor=none;strokeWidth=1;fillColor=none;fontFamily=Calibri;fontSize=12;align=center;comic=1;" vertex="1" parent="qBMLVj5xGVnhITaM47Ud-5">
          <mxGeometry width="330" height="99" as="geometry" />
        </mxCell>
        <mxCell id="qBMLVj5xGVnhITaM47Ud-7" value="Nosotros" style="text;html=1;points=[];align=left;verticalAlign=top;spacingTop=-4;fontSize=12;fontFamily=Calibri;" vertex="1" parent="qBMLVj5xGVnhITaM47Ud-5">
          <mxGeometry x="20" y="8" width="170" height="20" as="geometry" />
        </mxCell>
        <mxCell id="qBMLVj5xGVnhITaM47Ud-8" value="Productos" style="text;html=1;points=[];align=left;verticalAlign=top;spacingTop=-4;fontSize=12;fontFamily=Calibri;" vertex="1" parent="qBMLVj5xGVnhITaM47Ud-5">
          <mxGeometry x="20" y="28" width="170" height="20" as="geometry" />
        </mxCell>
        <mxCell id="qBMLVj5xGVnhITaM47Ud-9" value="Servicios" style="text;html=1;points=[];align=left;verticalAlign=top;spacingTop=-4;fontSize=12;fontFamily=Calibri;" vertex="1" parent="qBMLVj5xGVnhITaM47Ud-5">
          <mxGeometry x="20" y="48" width="170" height="20" as="geometry" />
        </mxCell>
        <mxCell id="qBMLVj5xGVnhITaM47Ud-10" value="Contacto" style="text;html=1;points=[];align=left;verticalAlign=top;spacingTop=-4;fontSize=12;fontFamily=Calibri;" vertex="1" parent="qBMLVj5xGVnhITaM47Ud-5">
          <mxGeometry x="20" y="68" width="170" height="20" as="geometry" />
        </mxCell>
        <mxCell id="qBMLVj5xGVnhITaM47Ud-11" value="" style="group;fontFamily=Calibri;" vertex="1" connectable="0" parent="1">
          <mxGeometry x="756" y="690" width="340" height="99" as="geometry" />
        </mxCell>
        <mxCell id="qBMLVj5xGVnhITaM47Ud-12" value="" style="whiteSpace=wrap;html=1;rounded=0;shadow=0;labelBackgroundColor=none;strokeWidth=1;fillColor=none;fontFamily=Calibri;fontSize=12;align=center;comic=1;" vertex="1" parent="qBMLVj5xGVnhITaM47Ud-11">
          <mxGeometry width="340" height="99" as="geometry" />
        </mxCell>
        <mxCell id="qBMLVj5xGVnhITaM47Ud-13" value="Privacidad" style="text;html=1;points=[];align=left;verticalAlign=top;spacingTop=-4;fontSize=12;fontFamily=Calibri;" vertex="1" parent="qBMLVj5xGVnhITaM47Ud-11">
          <mxGeometry x="20" y="10" width="170" height="20" as="geometry" />
        </mxCell>
        <mxCell id="qBMLVj5xGVnhITaM47Ud-14" value="Términos y condiciones" style="text;html=1;points=[];align=left;verticalAlign=top;spacingTop=-4;fontSize=12;fontFamily=Calibri;" vertex="1" parent="qBMLVj5xGVnhITaM47Ud-11">
          <mxGeometry x="20" y="30" width="170" height="20" as="geometry" />
        </mxCell>
        <mxCell id="XMNEIrAXN2A0aNNqp8Uj-1" value="" style="verticalLabelPosition=bottom;verticalAlign=top;html=1;shadow=0;dashed=0;strokeWidth=3;shape=mxgraph.android.phone2;strokeColor=default;fontFamily=Calibri;" vertex="1" parent="1">
          <mxGeometry x="340.68000000000006" y="930" width="359.32" height="650" as="geometry" />
        </mxCell>
        <mxCell id="XMNEIrAXN2A0aNNqp8Uj-2" value="" style="rounded=0;whiteSpace=wrap;html=1;fillColor=default;strokeColor=default;fontFamily=Calibri;" vertex="1" parent="1">
          <mxGeometry x="350" y="988" width="340" height="1452" as="geometry" />
        </mxCell>
        <mxCell id="XMNEIrAXN2A0aNNqp8Uj-6" value="" style="verticalLabelPosition=bottom;shadow=0;dashed=0;align=center;html=1;verticalAlign=top;strokeWidth=1;shape=mxgraph.mockup.graphics.simpleIcon;strokeColor=#999999;rounded=0;labelBackgroundColor=none;fontFamily=Calibri;fontSize=14;fontColor=#000000;comic=1;sketch=1;curveFitting=1;jiggle=2;fillColor=default;gradientColor=none;textShadow=0;" vertex="1" parent="1">
          <mxGeometry x="370" y="1010" width="313" height="66" as="geometry" />
        </mxCell>
        <mxCell id="XMNEIrAXN2A0aNNqp8Uj-7" value="LOGO" style="whiteSpace=wrap;html=1;rounded=0;shadow=0;labelBackgroundColor=none;strokeWidth=1;fontFamily=Calibri;fontSize=20;align=center;comic=1;sketch=1;curveFitting=1;jiggle=2;" vertex="1" parent="1">
          <mxGeometry x="463" y="1018" width="115" height="50" as="geometry" />
        </mxCell>
        <mxCell id="XMNEIrAXN2A0aNNqp8Uj-8" value="" style="verticalLabelPosition=bottom;shadow=0;dashed=0;align=center;html=1;verticalAlign=top;strokeWidth=1;shape=mxgraph.mockup.graphics.simpleIcon;strokeColor=#999999;rounded=0;labelBackgroundColor=none;fontFamily=Calibri;fontSize=14;fontColor=#000000;comic=1;" vertex="1" parent="1">
          <mxGeometry x="380" y="1146" width="293" height="170" as="geometry" />
        </mxCell>
        <mxCell id="XMNEIrAXN2A0aNNqp8Uj-9" value="Productos/Servicios" style="whiteSpace=wrap;html=1;rounded=0;shadow=0;labelBackgroundColor=none;strokeWidth=1;fillColor=none;fontFamily=Calibri;fontSize=25;align=center;verticalAlign=middle;spacing=10;comic=1;fontStyle=1;strokeColor=none;" vertex="1" parent="1">
          <mxGeometry x="370" y="1086" width="323" height="50" as="geometry" />
        </mxCell>
        <mxCell id="XMNEIrAXN2A0aNNqp8Uj-10" value="&lt;div style=&quot;text-align: justify&quot;&gt;&lt;br&gt;&lt;/div&gt;" style="whiteSpace=wrap;html=1;rounded=0;shadow=0;labelBackgroundColor=none;strokeWidth=1;fillColor=none;fontFamily=Calibri;fontSize=12;align=center;verticalAlign=top;spacing=10;comic=1;strokeColor=none;" vertex="1" parent="1">
          <mxGeometry x="380" y="1324" width="293" height="68" as="geometry" />
        </mxCell>
        <mxCell id="XMNEIrAXN2A0aNNqp8Uj-16" value="" style="group;fontFamily=Calibri;" vertex="1" connectable="0" parent="1">
          <mxGeometry x="370" y="2140" width="290" height="99" as="geometry" />
        </mxCell>
        <mxCell id="XMNEIrAXN2A0aNNqp8Uj-17" value="" style="whiteSpace=wrap;html=1;rounded=0;shadow=0;labelBackgroundColor=none;strokeWidth=1;fillColor=none;fontFamily=Calibri;fontSize=12;align=center;comic=1;" vertex="1" parent="XMNEIrAXN2A0aNNqp8Uj-16">
          <mxGeometry width="290" height="99" as="geometry" />
        </mxCell>
        <mxCell id="XMNEIrAXN2A0aNNqp8Uj-18" value="&lt;b&gt;Yacaré Studio&lt;/b&gt;&lt;div&gt;Dirección&lt;/div&gt;&lt;div&gt;Teléfono&lt;/div&gt;&lt;div&gt;Correo Electrónico&lt;/div&gt;" style="text;html=1;align=left;verticalAlign=top;whiteSpace=wrap;rounded=0;fontFamily=Calibri;" vertex="1" parent="XMNEIrAXN2A0aNNqp8Uj-16">
          <mxGeometry x="98.4084084084084" y="14.5" width="104.50450450450451" height="70" as="geometry" />
        </mxCell>
        <mxCell id="XMNEIrAXN2A0aNNqp8Uj-19" value="ISOLOGO" style="whiteSpace=wrap;html=1;rounded=0;shadow=0;labelBackgroundColor=none;strokeWidth=1;fontFamily=Calibri;fontSize=13;align=center;comic=1;" vertex="1" parent="XMNEIrAXN2A0aNNqp8Uj-16">
          <mxGeometry x="11.32132132132132" y="14.5" width="78.37837837837839" height="75.5" as="geometry" />
        </mxCell>
        <mxCell id="XMNEIrAXN2A0aNNqp8Uj-20" value="" style="group;fontFamily=Calibri;" vertex="1" connectable="0" parent="1">
          <mxGeometry x="370" y="2254" width="290" height="99" as="geometry" />
        </mxCell>
        <mxCell id="XMNEIrAXN2A0aNNqp8Uj-21" value="" style="whiteSpace=wrap;html=1;rounded=0;shadow=0;labelBackgroundColor=none;strokeWidth=1;fillColor=none;fontFamily=Calibri;fontSize=12;align=center;comic=1;" vertex="1" parent="XMNEIrAXN2A0aNNqp8Uj-20">
          <mxGeometry width="290" height="99" as="geometry" />
        </mxCell>
        <mxCell id="XMNEIrAXN2A0aNNqp8Uj-22" value="Nosotros" style="text;html=1;points=[];align=left;verticalAlign=top;spacingTop=-4;fontSize=12;fontFamily=Calibri;" vertex="1" parent="XMNEIrAXN2A0aNNqp8Uj-20">
          <mxGeometry x="17.575757575757574" y="8" width="149.3939393939394" height="20" as="geometry" />
        </mxCell>
        <mxCell id="XMNEIrAXN2A0aNNqp8Uj-23" value="Productos" style="text;html=1;points=[];align=left;verticalAlign=top;spacingTop=-4;fontSize=12;fontFamily=Calibri;" vertex="1" parent="XMNEIrAXN2A0aNNqp8Uj-20">
          <mxGeometry x="17.575757575757574" y="28" width="149.3939393939394" height="20" as="geometry" />
        </mxCell>
        <mxCell id="XMNEIrAXN2A0aNNqp8Uj-24" value="Servicios" style="text;html=1;points=[];align=left;verticalAlign=top;spacingTop=-4;fontSize=12;fontFamily=Calibri;" vertex="1" parent="XMNEIrAXN2A0aNNqp8Uj-20">
          <mxGeometry x="17.575757575757574" y="48" width="149.3939393939394" height="20" as="geometry" />
        </mxCell>
        <mxCell id="XMNEIrAXN2A0aNNqp8Uj-25" value="Contacto" style="text;html=1;points=[];align=left;verticalAlign=top;spacingTop=-4;fontSize=12;fontFamily=Calibri;" vertex="1" parent="XMNEIrAXN2A0aNNqp8Uj-20">
          <mxGeometry x="17.575757575757574" y="68" width="149.3939393939394" height="20" as="geometry" />
        </mxCell>
        <mxCell id="XMNEIrAXN2A0aNNqp8Uj-26" value="" style="group;fontFamily=Calibri;" vertex="1" connectable="0" parent="1">
          <mxGeometry x="370" y="2368" width="290" height="59" as="geometry" />
        </mxCell>
        <mxCell id="XMNEIrAXN2A0aNNqp8Uj-27" value="" style="whiteSpace=wrap;html=1;rounded=0;shadow=0;labelBackgroundColor=none;strokeWidth=1;fillColor=none;fontFamily=Calibri;fontSize=12;align=center;comic=1;" vertex="1" parent="XMNEIrAXN2A0aNNqp8Uj-26">
          <mxGeometry width="290" height="58.99999999999999" as="geometry" />
        </mxCell>
        <mxCell id="XMNEIrAXN2A0aNNqp8Uj-28" value="Privacidad" style="text;html=1;points=[];align=left;verticalAlign=top;spacingTop=-4;fontSize=12;fontFamily=Calibri;" vertex="1" parent="XMNEIrAXN2A0aNNqp8Uj-26">
          <mxGeometry x="17.058823529411764" y="5.959595959595959" width="145" height="11.919191919191919" as="geometry" />
        </mxCell>
        <mxCell id="XMNEIrAXN2A0aNNqp8Uj-29" value="Términos y condiciones" style="text;html=1;points=[];align=left;verticalAlign=top;spacingTop=-4;fontSize=12;fontFamily=Calibri;" vertex="1" parent="XMNEIrAXN2A0aNNqp8Uj-26">
          <mxGeometry x="17.058823529411764" y="23.53878787878788" width="145" height="11.919191919191919" as="geometry" />
        </mxCell>
        <mxCell id="677b7b8949515195-15" value="&lt;div style=&quot;text-align: justify&quot;&gt;&lt;span&gt;Lorem ipsum dolor sit amet, consectetur adipisicing elit, sed do eiusmod tempor incididunt ut labore et dolore magna aliqua. Ut enim ad minim veniam, quis nostrud exercitation ullamco laboris nisi ut aliquip ex ea commodo consequat. Duis aute irure dolor in reprehenderit in voluptate velit esse cillum dolore eu fugiat nulla pariatur.&lt;/span&gt;&lt;/div&gt;" style="whiteSpace=wrap;html=1;rounded=0;shadow=0;labelBackgroundColor=none;strokeWidth=1;fillColor=none;fontFamily=Calibri;fontSize=12;align=center;verticalAlign=top;spacing=10;comic=1;strokeColor=none;" parent="1" vertex="1">
          <mxGeometry x="379.58" y="1316" width="290" height="136" as="geometry" />
        </mxCell>
        <mxCell id="XMNEIrAXN2A0aNNqp8Uj-33" value="" style="verticalLabelPosition=bottom;shadow=0;dashed=0;align=center;html=1;verticalAlign=top;strokeWidth=1;shape=mxgraph.mockup.graphics.simpleIcon;strokeColor=#999999;rounded=0;labelBackgroundColor=none;fontFamily=Calibri;fontSize=14;fontColor=#000000;comic=1;" vertex="1" parent="1">
          <mxGeometry x="375.41999999999996" y="1452" width="293" height="170" as="geometry" />
        </mxCell>
        <mxCell id="XMNEIrAXN2A0aNNqp8Uj-37" value="&lt;div style=&quot;text-align: justify&quot;&gt;&lt;span&gt;Lorem ipsum dolor sit amet, consectetur adipisicing elit, sed do eiusmod tempor incididunt ut labore et dolore magna aliqua. Ut enim ad minim veniam, quis nostrud exercitation ullamco laboris nisi ut aliquip ex ea commodo consequat. Duis aute irure dolor in reprehenderit in voluptate velit esse cillum dolore eu fugiat nulla pariatur.&lt;/span&gt;&lt;/div&gt;" style="whiteSpace=wrap;html=1;rounded=0;shadow=0;labelBackgroundColor=none;strokeWidth=1;fillColor=none;fontFamily=Calibri;fontSize=12;align=center;verticalAlign=top;spacing=10;comic=1;strokeColor=none;" vertex="1" parent="1">
          <mxGeometry x="371.41999999999996" y="1622" width="290" height="136" as="geometry" />
        </mxCell>
        <mxCell id="XMNEIrAXN2A0aNNqp8Uj-38" value="" style="verticalLabelPosition=bottom;shadow=0;dashed=0;align=center;html=1;verticalAlign=top;strokeWidth=1;shape=mxgraph.mockup.graphics.simpleIcon;strokeColor=#999999;rounded=0;labelBackgroundColor=none;fontFamily=Calibri;fontSize=14;fontColor=#000000;comic=1;" vertex="1" parent="1">
          <mxGeometry x="378.29" y="1758" width="293" height="170" as="geometry" />
        </mxCell>
        <mxCell id="XMNEIrAXN2A0aNNqp8Uj-39" value="&lt;div style=&quot;text-align: justify&quot;&gt;&lt;span&gt;Lorem ipsum dolor sit amet, consectetur adipisicing elit, sed do eiusmod tempor incididunt ut labore et dolore magna aliqua. Ut enim ad minim veniam, quis nostrud exercitation ullamco laboris nisi ut aliquip ex ea commodo consequat. Duis aute irure dolor in reprehenderit in voluptate velit esse cillum dolore eu fugiat nulla pariatur.&lt;/span&gt;&lt;/div&gt;" style="whiteSpace=wrap;html=1;rounded=0;shadow=0;labelBackgroundColor=none;strokeWidth=1;fillColor=none;fontFamily=Calibri;fontSize=12;align=center;verticalAlign=top;spacing=10;comic=1;strokeColor=none;" vertex="1" parent="1">
          <mxGeometry x="377.87" y="1928" width="290" height="136" as="geometry" />
        </mxCell>
        <mxCell id="pUAbjemaIgqPXZVcK0DI-1" value="&lt;div style=&quot;text-align: justify&quot;&gt;&lt;span&gt;Lorem ipsum dolor sit amet, consectetur adipisicing elit, sed do eiusmod tempor incididunt ut labore et dolore magna aliqua. Ut enim ad minim veniam, quis nostrud exercitation ullamco laboris nisi ut aliquip ex ea commodo consequat. Duis aute irure dolor in reprehenderit in voluptate velit esse cillum dolore eu fugiat nulla pariatur. Excepteur sint occaecat cupidatat non proident, sunt in culpa qui officia deserunt mollit anim id est laborum.&lt;/span&gt;&lt;/div&gt;" style="whiteSpace=wrap;html=1;rounded=0;shadow=0;labelBackgroundColor=none;strokeWidth=1;fillColor=none;fontFamily=Calibri;fontSize=12;align=center;verticalAlign=top;spacing=10;comic=1;strokeColor=none;" vertex="1" parent="1">
          <mxGeometry x="73" y="414" width="320" height="180" as="geometry" />
        </mxCell>
        <mxCell id="luCl4Py4wLunIjrP1jKx-1" value="Inicio" style="text;html=1;points=[];align=center;verticalAlign=middle;spacingTop=0;fontSize=14;fontFamily=Calibri;fillColor=#dae8fc;strokeColor=#6c8ebf;sketch=1;curveFitting=1;jiggle=2;" vertex="1" parent="1">
          <mxGeometry x="530" y="51" width="100" height="30" as="geometry" />
        </mxCell>
        <mxCell id="luCl4Py4wLunIjrP1jKx-2" value="Servicios" style="text;html=1;points=[];align=center;verticalAlign=middle;spacingTop=0;fontSize=14;fontFamily=Calibri;fillColor=#dae8fc;strokeColor=#6c8ebf;sketch=1;curveFitting=1;jiggle=2;" vertex="1" parent="1">
          <mxGeometry x="750" y="51" width="100" height="30" as="geometry" />
        </mxCell>
        <mxCell id="luCl4Py4wLunIjrP1jKx-3" value="Productos" style="text;html=1;points=[];align=center;verticalAlign=middle;spacingTop=0;fontSize=14;fontFamily=Calibri;fillColor=#dae8fc;strokeColor=#6c8ebf;sketch=1;curveFitting=1;jiggle=2;" vertex="1" parent="1">
          <mxGeometry x="860" y="51" width="100" height="30" as="geometry" />
        </mxCell>
        <mxCell id="luCl4Py4wLunIjrP1jKx-4" value="Contacto" style="text;html=1;points=[];align=center;verticalAlign=middle;spacingTop=0;fontSize=14;fontFamily=Calibri;fillColor=#dae8fc;strokeColor=#6c8ebf;sketch=1;curveFitting=1;jiggle=2;" vertex="1" parent="1">
          <mxGeometry x="970" y="51" width="100" height="30" as="geometry" />
        </mxCell>
        <mxCell id="luCl4Py4wLunIjrP1jKx-5" value="Nosotros" style="text;html=1;points=[];align=center;verticalAlign=middle;spacingTop=0;fontSize=14;fontFamily=Calibri;fillColor=#dae8fc;strokeColor=#6c8ebf;sketch=1;curveFitting=1;jiggle=2;" vertex="1" parent="1">
          <mxGeometry x="640" y="51" width="100" height="30" as="geometry" />
        </mxCell>
      </root>
    </mxGraphModel>
  </diagram>
  <diagram name="contacto" id="8n67KIObBG3rder-GSy1">
    <mxGraphModel dx="1671" dy="861" grid="1" gridSize="10" guides="1" tooltips="1" connect="1" arrows="1" fold="1" page="1" pageScale="1" pageWidth="1169" pageHeight="827" background="#ffffff" math="0" shadow="0">
      <root>
        <mxCell id="P3Ig-mJrCZDjbsMTlbMf-0" />
        <mxCell id="P3Ig-mJrCZDjbsMTlbMf-1" parent="P3Ig-mJrCZDjbsMTlbMf-0" />
        <mxCell id="P3Ig-mJrCZDjbsMTlbMf-2" value="" style="whiteSpace=wrap;html=1;rounded=0;shadow=0;labelBackgroundColor=none;strokeColor=#000000;strokeWidth=1;fillColor=none;fontFamily=Calibri;fontSize=12;fontColor=#000000;align=center;comic=1;" vertex="1" parent="P3Ig-mJrCZDjbsMTlbMf-1">
          <mxGeometry x="20" y="20" width="1140" height="790" as="geometry" />
        </mxCell>
        <mxCell id="P3Ig-mJrCZDjbsMTlbMf-3" value="LOGO" style="whiteSpace=wrap;html=1;rounded=0;shadow=0;labelBackgroundColor=none;strokeWidth=1;fontFamily=Calibri;fontSize=28;align=center;comic=1;" vertex="1" parent="P3Ig-mJrCZDjbsMTlbMf-1">
          <mxGeometry x="40" y="40" width="190" height="50" as="geometry" />
        </mxCell>
        <mxCell id="P3Ig-mJrCZDjbsMTlbMf-8" value="" style="line;strokeWidth=1;html=1;rounded=0;shadow=0;labelBackgroundColor=none;fillColor=none;fontFamily=Calibri;fontSize=14;fontColor=#000000;align=center;comic=1;" vertex="1" parent="P3Ig-mJrCZDjbsMTlbMf-1">
          <mxGeometry x="20" y="110" width="1060" height="10" as="geometry" />
        </mxCell>
        <mxCell id="P3Ig-mJrCZDjbsMTlbMf-15" value="Estamos en contacto" style="whiteSpace=wrap;html=1;rounded=0;shadow=0;labelBackgroundColor=none;strokeWidth=1;fillColor=none;fontFamily=Calibri;fontSize=48;align=center;verticalAlign=top;spacing=10;comic=1;fontStyle=1;strokeColor=none;" vertex="1" parent="P3Ig-mJrCZDjbsMTlbMf-1">
          <mxGeometry x="40" y="120" width="1100" height="90" as="geometry" />
        </mxCell>
        <mxCell id="P3Ig-mJrCZDjbsMTlbMf-16" value="" style="group;fontFamily=Calibri;" vertex="1" connectable="0" parent="P3Ig-mJrCZDjbsMTlbMf-1">
          <mxGeometry x="73" y="690" width="333" height="99" as="geometry" />
        </mxCell>
        <mxCell id="P3Ig-mJrCZDjbsMTlbMf-17" value="" style="whiteSpace=wrap;html=1;rounded=0;shadow=0;labelBackgroundColor=none;strokeWidth=1;fillColor=none;fontFamily=Calibri;fontSize=12;align=center;comic=1;" vertex="1" parent="P3Ig-mJrCZDjbsMTlbMf-16">
          <mxGeometry width="333" height="99" as="geometry" />
        </mxCell>
        <mxCell id="P3Ig-mJrCZDjbsMTlbMf-18" value="&lt;b&gt;Yacaré Studio&lt;/b&gt;&lt;div&gt;Dirección&lt;/div&gt;&lt;div&gt;Teléfono&lt;/div&gt;&lt;div&gt;Correo Electrónico&lt;/div&gt;" style="text;html=1;align=left;verticalAlign=top;whiteSpace=wrap;rounded=0;fontFamily=Calibri;" vertex="1" parent="P3Ig-mJrCZDjbsMTlbMf-16">
          <mxGeometry x="113" y="14.5" width="120" height="70" as="geometry" />
        </mxCell>
        <mxCell id="P3Ig-mJrCZDjbsMTlbMf-19" value="ISOLOGO" style="whiteSpace=wrap;html=1;rounded=0;shadow=0;labelBackgroundColor=none;strokeWidth=1;fontFamily=Calibri;fontSize=13;align=center;comic=1;" vertex="1" parent="P3Ig-mJrCZDjbsMTlbMf-16">
          <mxGeometry x="13" y="14.5" width="90" height="75.5" as="geometry" />
        </mxCell>
        <mxCell id="P3Ig-mJrCZDjbsMTlbMf-20" value="" style="group;fontFamily=Calibri;" vertex="1" connectable="0" parent="P3Ig-mJrCZDjbsMTlbMf-1">
          <mxGeometry x="416" y="690" width="330" height="99" as="geometry" />
        </mxCell>
        <mxCell id="P3Ig-mJrCZDjbsMTlbMf-21" value="" style="whiteSpace=wrap;html=1;rounded=0;shadow=0;labelBackgroundColor=none;strokeWidth=1;fillColor=none;fontFamily=Calibri;fontSize=12;align=center;comic=1;" vertex="1" parent="P3Ig-mJrCZDjbsMTlbMf-20">
          <mxGeometry width="330" height="99" as="geometry" />
        </mxCell>
        <mxCell id="P3Ig-mJrCZDjbsMTlbMf-22" value="Nosotros" style="text;html=1;points=[];align=left;verticalAlign=top;spacingTop=-4;fontSize=12;fontFamily=Calibri;" vertex="1" parent="P3Ig-mJrCZDjbsMTlbMf-20">
          <mxGeometry x="20" y="8" width="170" height="20" as="geometry" />
        </mxCell>
        <mxCell id="P3Ig-mJrCZDjbsMTlbMf-23" value="Productos" style="text;html=1;points=[];align=left;verticalAlign=top;spacingTop=-4;fontSize=12;fontFamily=Calibri;" vertex="1" parent="P3Ig-mJrCZDjbsMTlbMf-20">
          <mxGeometry x="20" y="28" width="170" height="20" as="geometry" />
        </mxCell>
        <mxCell id="P3Ig-mJrCZDjbsMTlbMf-24" value="Servicios" style="text;html=1;points=[];align=left;verticalAlign=top;spacingTop=-4;fontSize=12;fontFamily=Calibri;" vertex="1" parent="P3Ig-mJrCZDjbsMTlbMf-20">
          <mxGeometry x="20" y="48" width="170" height="20" as="geometry" />
        </mxCell>
        <mxCell id="P3Ig-mJrCZDjbsMTlbMf-25" value="Contacto" style="text;html=1;points=[];align=left;verticalAlign=top;spacingTop=-4;fontSize=12;fontFamily=Calibri;" vertex="1" parent="P3Ig-mJrCZDjbsMTlbMf-20">
          <mxGeometry x="20" y="68" width="170" height="20" as="geometry" />
        </mxCell>
        <mxCell id="P3Ig-mJrCZDjbsMTlbMf-26" value="" style="group;fontFamily=Calibri;" vertex="1" connectable="0" parent="P3Ig-mJrCZDjbsMTlbMf-1">
          <mxGeometry x="756" y="690" width="340" height="99" as="geometry" />
        </mxCell>
        <mxCell id="P3Ig-mJrCZDjbsMTlbMf-27" value="" style="whiteSpace=wrap;html=1;rounded=0;shadow=0;labelBackgroundColor=none;strokeWidth=1;fillColor=none;fontFamily=Calibri;fontSize=12;align=center;comic=1;" vertex="1" parent="P3Ig-mJrCZDjbsMTlbMf-26">
          <mxGeometry width="340" height="99" as="geometry" />
        </mxCell>
        <mxCell id="P3Ig-mJrCZDjbsMTlbMf-28" value="Privacidad" style="text;html=1;points=[];align=left;verticalAlign=top;spacingTop=-4;fontSize=12;fontFamily=Calibri;" vertex="1" parent="P3Ig-mJrCZDjbsMTlbMf-26">
          <mxGeometry x="20" y="10" width="170" height="20" as="geometry" />
        </mxCell>
        <mxCell id="P3Ig-mJrCZDjbsMTlbMf-29" value="Términos y condiciones" style="text;html=1;points=[];align=left;verticalAlign=top;spacingTop=-4;fontSize=12;fontFamily=Calibri;" vertex="1" parent="P3Ig-mJrCZDjbsMTlbMf-26">
          <mxGeometry x="20" y="30" width="170" height="20" as="geometry" />
        </mxCell>
        <mxCell id="P3Ig-mJrCZDjbsMTlbMf-30" value="" style="verticalLabelPosition=bottom;verticalAlign=top;html=1;shadow=0;dashed=0;strokeWidth=3;shape=mxgraph.android.phone2;strokeColor=default;fontFamily=Calibri;" vertex="1" parent="P3Ig-mJrCZDjbsMTlbMf-1">
          <mxGeometry x="340.68000000000006" y="930" width="359.32" height="650" as="geometry" />
        </mxCell>
        <mxCell id="P3Ig-mJrCZDjbsMTlbMf-31" value="" style="rounded=0;whiteSpace=wrap;html=1;fillColor=default;strokeColor=default;fontFamily=Calibri;" vertex="1" parent="P3Ig-mJrCZDjbsMTlbMf-1">
          <mxGeometry x="350" y="988" width="340" height="1062" as="geometry" />
        </mxCell>
        <mxCell id="P3Ig-mJrCZDjbsMTlbMf-32" value="" style="verticalLabelPosition=bottom;shadow=0;dashed=0;align=center;html=1;verticalAlign=top;strokeWidth=1;shape=mxgraph.mockup.graphics.simpleIcon;strokeColor=#999999;rounded=0;labelBackgroundColor=none;fontFamily=Calibri;fontSize=14;fontColor=#000000;comic=1;sketch=1;curveFitting=1;jiggle=2;fillColor=default;gradientColor=none;textShadow=0;" vertex="1" parent="P3Ig-mJrCZDjbsMTlbMf-1">
          <mxGeometry x="370" y="1010" width="313" height="66" as="geometry" />
        </mxCell>
        <mxCell id="P3Ig-mJrCZDjbsMTlbMf-33" value="LOGO" style="whiteSpace=wrap;html=1;rounded=0;shadow=0;labelBackgroundColor=none;strokeWidth=1;fontFamily=Calibri;fontSize=20;align=center;comic=1;sketch=1;curveFitting=1;jiggle=2;" vertex="1" parent="P3Ig-mJrCZDjbsMTlbMf-1">
          <mxGeometry x="463" y="1018" width="115" height="50" as="geometry" />
        </mxCell>
        <mxCell id="P3Ig-mJrCZDjbsMTlbMf-34" value="" style="verticalLabelPosition=bottom;shadow=0;dashed=0;align=center;html=1;verticalAlign=top;strokeWidth=1;shape=mxgraph.mockup.graphics.simpleIcon;strokeColor=#999999;rounded=0;labelBackgroundColor=none;fontFamily=Calibri;fontSize=14;fontColor=#000000;comic=1;" vertex="1" parent="P3Ig-mJrCZDjbsMTlbMf-1">
          <mxGeometry x="374" y="1530" width="293" height="170" as="geometry" />
        </mxCell>
        <mxCell id="P3Ig-mJrCZDjbsMTlbMf-35" value="Estamos en Contacto" style="whiteSpace=wrap;html=1;rounded=0;shadow=0;labelBackgroundColor=none;strokeWidth=1;fillColor=none;fontFamily=Calibri;fontSize=25;align=center;verticalAlign=middle;spacing=10;comic=1;fontStyle=1;strokeColor=none;" vertex="1" parent="P3Ig-mJrCZDjbsMTlbMf-1">
          <mxGeometry x="370" y="1086" width="323" height="50" as="geometry" />
        </mxCell>
        <mxCell id="3FXlxOqPUhN-23Vm-Kxc-1" value="" style="group;fontFamily=Calibri;strokeColor=none;fillColor=none;rounded=0;" vertex="1" connectable="0" parent="P3Ig-mJrCZDjbsMTlbMf-1">
          <mxGeometry x="650" y="256" width="470" height="316" as="geometry" />
        </mxCell>
        <mxCell id="P3Ig-mJrCZDjbsMTlbMf-9" value="" style="verticalLabelPosition=bottom;shadow=0;dashed=0;align=center;html=1;verticalAlign=top;strokeWidth=1;shape=mxgraph.mockup.graphics.simpleIcon;strokeColor=#999999;rounded=0;labelBackgroundColor=none;fontFamily=Calibri;fontSize=14;fontColor=#000000;comic=1;" vertex="1" parent="3FXlxOqPUhN-23Vm-Kxc-1">
          <mxGeometry width="470" height="316" as="geometry" />
        </mxCell>
        <mxCell id="3FXlxOqPUhN-23Vm-Kxc-0" value="mapa" style="text;html=1;points=[];align=center;verticalAlign=middle;spacingTop=-4;fontSize=12;fontFamily=Calibri;" vertex="1" parent="3FXlxOqPUhN-23Vm-Kxc-1">
          <mxGeometry x="175" y="24" width="120" height="20" as="geometry" />
        </mxCell>
        <mxCell id="LwWFa9AURZtclZoMF5r0-1" value="&lt;div style=&quot;&quot;&gt;&lt;span&gt;Correo Electrónico*&lt;/span&gt;&lt;/div&gt;" style="whiteSpace=wrap;html=1;rounded=0;shadow=0;labelBackgroundColor=none;strokeWidth=1;fillColor=none;fontFamily=Calibri;fontSize=12;align=left;verticalAlign=middle;spacing=10;comic=1;strokeColor=none;fontStyle=1" vertex="1" parent="P3Ig-mJrCZDjbsMTlbMf-1">
          <mxGeometry x="40" y="240" width="540" height="30" as="geometry" />
        </mxCell>
        <mxCell id="LwWFa9AURZtclZoMF5r0-2" value="" style="rounded=0;whiteSpace=wrap;html=1;sketch=1;curveFitting=1;jiggle=2;fontFamily=Calibri;" vertex="1" parent="P3Ig-mJrCZDjbsMTlbMf-1">
          <mxGeometry x="40" y="270" width="540" height="40" as="geometry" />
        </mxCell>
        <mxCell id="LwWFa9AURZtclZoMF5r0-4" value="&lt;div style=&quot;&quot;&gt;&lt;span&gt;Teléfono Contanto&lt;/span&gt;&lt;/div&gt;" style="whiteSpace=wrap;html=1;rounded=0;shadow=0;labelBackgroundColor=none;strokeWidth=1;fillColor=none;fontFamily=Calibri;fontSize=12;align=left;verticalAlign=middle;spacing=10;comic=1;strokeColor=none;fontStyle=1" vertex="1" parent="P3Ig-mJrCZDjbsMTlbMf-1">
          <mxGeometry x="40" y="320" width="540" height="30" as="geometry" />
        </mxCell>
        <mxCell id="LwWFa9AURZtclZoMF5r0-5" value="" style="rounded=0;whiteSpace=wrap;html=1;sketch=1;curveFitting=1;jiggle=2;fontFamily=Calibri;" vertex="1" parent="P3Ig-mJrCZDjbsMTlbMf-1">
          <mxGeometry x="40" y="350" width="540" height="40" as="geometry" />
        </mxCell>
        <mxCell id="LwWFa9AURZtclZoMF5r0-6" value="&lt;div style=&quot;&quot;&gt;&lt;span&gt;Tu Consulta *&lt;/span&gt;&lt;/div&gt;" style="whiteSpace=wrap;html=1;rounded=0;shadow=0;labelBackgroundColor=none;strokeWidth=1;fillColor=none;fontFamily=Calibri;fontSize=12;align=left;verticalAlign=middle;spacing=10;comic=1;strokeColor=none;fontStyle=1" vertex="1" parent="P3Ig-mJrCZDjbsMTlbMf-1">
          <mxGeometry x="40" y="400" width="540" height="30" as="geometry" />
        </mxCell>
        <mxCell id="LwWFa9AURZtclZoMF5r0-7" value="" style="rounded=0;whiteSpace=wrap;html=1;sketch=1;curveFitting=1;jiggle=2;fontFamily=Calibri;" vertex="1" parent="P3Ig-mJrCZDjbsMTlbMf-1">
          <mxGeometry x="40" y="430" width="540" height="140" as="geometry" />
        </mxCell>
        <mxCell id="LwWFa9AURZtclZoMF5r0-9" value="Enviar Consulta" style="rounded=0;whiteSpace=wrap;html=1;sketch=1;curveFitting=1;jiggle=2;fontFamily=Calibri;" vertex="1" parent="P3Ig-mJrCZDjbsMTlbMf-1">
          <mxGeometry x="196.5" y="580" width="227" height="40" as="geometry" />
        </mxCell>
        <mxCell id="650-EuEkw8g7kLJn-8TD-0" value="Inicio" style="text;html=1;points=[];align=center;verticalAlign=middle;spacingTop=0;fontSize=14;fontFamily=Calibri;fillColor=#dae8fc;strokeColor=#6c8ebf;sketch=1;curveFitting=1;jiggle=2;" vertex="1" parent="P3Ig-mJrCZDjbsMTlbMf-1">
          <mxGeometry x="530" y="51" width="100" height="30" as="geometry" />
        </mxCell>
        <mxCell id="650-EuEkw8g7kLJn-8TD-1" value="Servicios" style="text;html=1;points=[];align=center;verticalAlign=middle;spacingTop=0;fontSize=14;fontFamily=Calibri;fillColor=#dae8fc;strokeColor=#6c8ebf;sketch=1;curveFitting=1;jiggle=2;" vertex="1" parent="P3Ig-mJrCZDjbsMTlbMf-1">
          <mxGeometry x="750" y="51" width="100" height="30" as="geometry" />
        </mxCell>
        <mxCell id="650-EuEkw8g7kLJn-8TD-2" value="Productos" style="text;html=1;points=[];align=center;verticalAlign=middle;spacingTop=0;fontSize=14;fontFamily=Calibri;fillColor=#dae8fc;strokeColor=#6c8ebf;sketch=1;curveFitting=1;jiggle=2;" vertex="1" parent="P3Ig-mJrCZDjbsMTlbMf-1">
          <mxGeometry x="860" y="51" width="100" height="30" as="geometry" />
        </mxCell>
        <mxCell id="650-EuEkw8g7kLJn-8TD-3" value="Contacto" style="text;html=1;points=[];align=center;verticalAlign=middle;spacingTop=0;fontSize=14;fontFamily=Calibri;fillColor=#dae8fc;strokeColor=#6c8ebf;sketch=1;curveFitting=1;jiggle=2;" vertex="1" parent="P3Ig-mJrCZDjbsMTlbMf-1">
          <mxGeometry x="970" y="51" width="100" height="30" as="geometry" />
        </mxCell>
        <mxCell id="650-EuEkw8g7kLJn-8TD-4" value="Nosotros" style="text;html=1;points=[];align=center;verticalAlign=middle;spacingTop=0;fontSize=14;fontFamily=Calibri;fillColor=#dae8fc;strokeColor=#6c8ebf;sketch=1;curveFitting=1;jiggle=2;" vertex="1" parent="P3Ig-mJrCZDjbsMTlbMf-1">
          <mxGeometry x="640" y="51" width="100" height="30" as="geometry" />
        </mxCell>
        <mxCell id="iI1w8__9fS4K3TI9AC9h-0" value="&lt;div style=&quot;&quot;&gt;&lt;span&gt;Correo Electrónico*&lt;/span&gt;&lt;/div&gt;" style="whiteSpace=wrap;html=1;rounded=0;shadow=0;labelBackgroundColor=none;strokeWidth=1;fillColor=none;fontFamily=Calibri;fontSize=12;align=left;verticalAlign=middle;spacing=10;comic=1;strokeColor=none;fontStyle=1" vertex="1" parent="P3Ig-mJrCZDjbsMTlbMf-1">
          <mxGeometry x="370" y="1129" width="310" height="30" as="geometry" />
        </mxCell>
        <mxCell id="iI1w8__9fS4K3TI9AC9h-1" value="" style="rounded=0;whiteSpace=wrap;html=1;sketch=1;curveFitting=1;jiggle=2;fontFamily=Calibri;" vertex="1" parent="P3Ig-mJrCZDjbsMTlbMf-1">
          <mxGeometry x="370" y="1159" width="310" height="40" as="geometry" />
        </mxCell>
        <mxCell id="iI1w8__9fS4K3TI9AC9h-2" value="&lt;div style=&quot;&quot;&gt;&lt;span&gt;Teléfono Contanto&lt;/span&gt;&lt;/div&gt;" style="whiteSpace=wrap;html=1;rounded=0;shadow=0;labelBackgroundColor=none;strokeWidth=1;fillColor=none;fontFamily=Calibri;fontSize=12;align=left;verticalAlign=middle;spacing=10;comic=1;strokeColor=none;fontStyle=1" vertex="1" parent="P3Ig-mJrCZDjbsMTlbMf-1">
          <mxGeometry x="370" y="1199" width="310" height="30" as="geometry" />
        </mxCell>
        <mxCell id="iI1w8__9fS4K3TI9AC9h-3" value="" style="rounded=0;whiteSpace=wrap;html=1;sketch=1;curveFitting=1;jiggle=2;fontFamily=Calibri;" vertex="1" parent="P3Ig-mJrCZDjbsMTlbMf-1">
          <mxGeometry x="370" y="1229" width="310" height="40" as="geometry" />
        </mxCell>
        <mxCell id="iI1w8__9fS4K3TI9AC9h-4" value="&lt;div style=&quot;&quot;&gt;&lt;span&gt;Tu Consulta *&lt;/span&gt;&lt;/div&gt;" style="whiteSpace=wrap;html=1;rounded=0;shadow=0;labelBackgroundColor=none;strokeWidth=1;fillColor=none;fontFamily=Calibri;fontSize=12;align=left;verticalAlign=middle;spacing=10;comic=1;strokeColor=none;fontStyle=1" vertex="1" parent="P3Ig-mJrCZDjbsMTlbMf-1">
          <mxGeometry x="371.5" y="1269" width="310" height="30" as="geometry" />
        </mxCell>
        <mxCell id="iI1w8__9fS4K3TI9AC9h-5" value="" style="rounded=0;whiteSpace=wrap;html=1;sketch=1;curveFitting=1;jiggle=2;fontFamily=Calibri;" vertex="1" parent="P3Ig-mJrCZDjbsMTlbMf-1">
          <mxGeometry x="371.5" y="1299" width="310" height="130" as="geometry" />
        </mxCell>
        <mxCell id="iI1w8__9fS4K3TI9AC9h-6" value="Enviar Consulta" style="rounded=0;whiteSpace=wrap;html=1;sketch=1;curveFitting=1;jiggle=2;fontFamily=Calibri;" vertex="1" parent="P3Ig-mJrCZDjbsMTlbMf-1">
          <mxGeometry x="406" y="1450" width="227" height="40" as="geometry" />
        </mxCell>
        <mxCell id="vYTL-W89w0ChrtxifpNj-0" value="" style="group;fontFamily=Calibri;" vertex="1" connectable="0" parent="P3Ig-mJrCZDjbsMTlbMf-1">
          <mxGeometry x="370" y="1740" width="290" height="99" as="geometry" />
        </mxCell>
        <mxCell id="vYTL-W89w0ChrtxifpNj-1" value="" style="whiteSpace=wrap;html=1;rounded=0;shadow=0;labelBackgroundColor=none;strokeWidth=1;fillColor=none;fontFamily=Calibri;fontSize=12;align=center;comic=1;" vertex="1" parent="vYTL-W89w0ChrtxifpNj-0">
          <mxGeometry width="290" height="99" as="geometry" />
        </mxCell>
        <mxCell id="vYTL-W89w0ChrtxifpNj-2" value="&lt;b&gt;Yacaré Studio&lt;/b&gt;&lt;div&gt;Dirección&lt;/div&gt;&lt;div&gt;Teléfono&lt;/div&gt;&lt;div&gt;Correo Electrónico&lt;/div&gt;" style="text;html=1;align=left;verticalAlign=top;whiteSpace=wrap;rounded=0;fontFamily=Calibri;" vertex="1" parent="vYTL-W89w0ChrtxifpNj-0">
          <mxGeometry x="98.4084084084084" y="14.5" width="104.50450450450451" height="70" as="geometry" />
        </mxCell>
        <mxCell id="vYTL-W89w0ChrtxifpNj-3" value="ISOLOGO" style="whiteSpace=wrap;html=1;rounded=0;shadow=0;labelBackgroundColor=none;strokeWidth=1;fontFamily=Calibri;fontSize=13;align=center;comic=1;" vertex="1" parent="vYTL-W89w0ChrtxifpNj-0">
          <mxGeometry x="11.32132132132132" y="14.5" width="78.37837837837839" height="75.5" as="geometry" />
        </mxCell>
        <mxCell id="vYTL-W89w0ChrtxifpNj-4" value="" style="group;fontFamily=Calibri;" vertex="1" connectable="0" parent="P3Ig-mJrCZDjbsMTlbMf-1">
          <mxGeometry x="370" y="1854" width="290" height="99" as="geometry" />
        </mxCell>
        <mxCell id="vYTL-W89w0ChrtxifpNj-5" value="" style="whiteSpace=wrap;html=1;rounded=0;shadow=0;labelBackgroundColor=none;strokeWidth=1;fillColor=none;fontFamily=Calibri;fontSize=12;align=center;comic=1;" vertex="1" parent="vYTL-W89w0ChrtxifpNj-4">
          <mxGeometry width="290" height="99" as="geometry" />
        </mxCell>
        <mxCell id="vYTL-W89w0ChrtxifpNj-6" value="Nosotros" style="text;html=1;points=[];align=left;verticalAlign=top;spacingTop=-4;fontSize=12;fontFamily=Calibri;" vertex="1" parent="vYTL-W89w0ChrtxifpNj-4">
          <mxGeometry x="17.575757575757574" y="8" width="149.3939393939394" height="20" as="geometry" />
        </mxCell>
        <mxCell id="vYTL-W89w0ChrtxifpNj-7" value="Productos" style="text;html=1;points=[];align=left;verticalAlign=top;spacingTop=-4;fontSize=12;fontFamily=Calibri;" vertex="1" parent="vYTL-W89w0ChrtxifpNj-4">
          <mxGeometry x="17.575757575757574" y="28" width="149.3939393939394" height="20" as="geometry" />
        </mxCell>
        <mxCell id="vYTL-W89w0ChrtxifpNj-8" value="Servicios" style="text;html=1;points=[];align=left;verticalAlign=top;spacingTop=-4;fontSize=12;fontFamily=Calibri;" vertex="1" parent="vYTL-W89w0ChrtxifpNj-4">
          <mxGeometry x="17.575757575757574" y="48" width="149.3939393939394" height="20" as="geometry" />
        </mxCell>
        <mxCell id="vYTL-W89w0ChrtxifpNj-9" value="Contacto" style="text;html=1;points=[];align=left;verticalAlign=top;spacingTop=-4;fontSize=12;fontFamily=Calibri;" vertex="1" parent="vYTL-W89w0ChrtxifpNj-4">
          <mxGeometry x="17.575757575757574" y="68" width="149.3939393939394" height="20" as="geometry" />
        </mxCell>
        <mxCell id="vYTL-W89w0ChrtxifpNj-10" value="" style="group;fontFamily=Calibri;" vertex="1" connectable="0" parent="P3Ig-mJrCZDjbsMTlbMf-1">
          <mxGeometry x="370" y="1968" width="290" height="59" as="geometry" />
        </mxCell>
        <mxCell id="vYTL-W89w0ChrtxifpNj-11" value="" style="whiteSpace=wrap;html=1;rounded=0;shadow=0;labelBackgroundColor=none;strokeWidth=1;fillColor=none;fontFamily=Calibri;fontSize=12;align=center;comic=1;" vertex="1" parent="vYTL-W89w0ChrtxifpNj-10">
          <mxGeometry width="290" height="58.99999999999999" as="geometry" />
        </mxCell>
        <mxCell id="vYTL-W89w0ChrtxifpNj-12" value="Privacidad" style="text;html=1;points=[];align=left;verticalAlign=top;spacingTop=-4;fontSize=12;fontFamily=Calibri;" vertex="1" parent="vYTL-W89w0ChrtxifpNj-10">
          <mxGeometry x="17.058823529411764" y="5.959595959595959" width="145" height="11.919191919191919" as="geometry" />
        </mxCell>
        <mxCell id="vYTL-W89w0ChrtxifpNj-13" value="Términos y condiciones" style="text;html=1;points=[];align=left;verticalAlign=top;spacingTop=-4;fontSize=12;fontFamily=Calibri;" vertex="1" parent="vYTL-W89w0ChrtxifpNj-10">
          <mxGeometry x="17.058823529411764" y="23.53878787878788" width="145" height="11.919191919191919" as="geometry" />
        </mxCell>
      </root>
    </mxGraphModel>
  </diagram>
</mxfile>
